<mxfile host="app.diagrams.net" modified="2023-08-16T10:24:06.343Z" agent="Mozilla/5.0 (Windows NT 10.0; Win64; x64) AppleWebKit/537.36 (KHTML, like Gecko) Chrome/115.0.0.0 Safari/537.36" etag="JI0LIAvJXr00wAuY4of6" version="21.6.8" type="github">
  <diagram id="JLikqGqCweqWFy_HerNJ" name="Страница 1">
    <mxGraphModel dx="1647" dy="-1477" grid="1" gridSize="10" guides="1" tooltips="1" connect="1" arrows="1" fold="1" page="1" pageScale="1" pageWidth="827" pageHeight="1169" math="0" shadow="0">
      <root>
        <mxCell id="0" />
        <mxCell id="1" parent="0" />
        <mxCell id="rocJCxlV0Q5dgGiiJqB6-1" value="frontend" style="shape=umlLifeline;perimeter=lifelinePerimeter;container=1;collapsible=0;recursiveResize=0;rounded=1;shadow=0;strokeWidth=1;fontSize=12;" parent="1" vertex="1">
          <mxGeometry x="200" y="2360" width="106" height="400" as="geometry" />
        </mxCell>
        <mxCell id="rocJCxlV0Q5dgGiiJqB6-2" value="" style="points=[];perimeter=orthogonalPerimeter;rounded=1;shadow=0;strokeWidth=1;" parent="rocJCxlV0Q5dgGiiJqB6-1" vertex="1">
          <mxGeometry x="48" y="80" width="10" height="300" as="geometry" />
        </mxCell>
        <mxCell id="rocJCxlV0Q5dgGiiJqB6-3" value="&lt;font style=&quot;font-size: 10px;&quot;&gt;5.б. Возврат в ответе результата&lt;br style=&quot;border-color: var(--border-color);&quot;&gt;добавления (ошибка)&lt;/font&gt;" style="html=1;verticalAlign=bottom;endArrow=open;dashed=1;endSize=8;fontSize=12;gradientColor=#7ea6e0;fillColor=#dae8fc;strokeColor=#6c8ebf;" parent="rocJCxlV0Q5dgGiiJqB6-1" edge="1">
          <mxGeometry relative="1" as="geometry">
            <mxPoint x="234.5" y="340" as="sourcePoint" />
            <mxPoint x="64.5" y="340" as="targetPoint" />
            <mxPoint as="offset" />
          </mxGeometry>
        </mxCell>
        <mxCell id="rocJCxlV0Q5dgGiiJqB6-4" value="connector/gatweay" style="shape=umlLifeline;perimeter=lifelinePerimeter;container=1;collapsible=0;recursiveResize=0;rounded=1;shadow=0;strokeWidth=1;" parent="1" vertex="1">
          <mxGeometry x="389" y="2360" width="101" height="400" as="geometry" />
        </mxCell>
        <mxCell id="rocJCxlV0Q5dgGiiJqB6-5" value="" style="points=[];perimeter=orthogonalPerimeter;rounded=1;shadow=0;strokeWidth=1;" parent="rocJCxlV0Q5dgGiiJqB6-4" vertex="1">
          <mxGeometry x="45.5" y="80" width="10" height="300" as="geometry" />
        </mxCell>
        <mxCell id="rocJCxlV0Q5dgGiiJqB6-6" value="2. Запрос на проверку &#xa;доступа для добавления &#xa;авторизационных данных" style="verticalAlign=bottom;endArrow=block;shadow=0;strokeWidth=1;fontSize=10;fillColor=#f0a30a;strokeColor=#BD7000;exitX=1.55;exitY=0;exitDx=0;exitDy=0;exitPerimeter=0;" parent="rocJCxlV0Q5dgGiiJqB6-4" edge="1">
          <mxGeometry x="0.0063" relative="1" as="geometry">
            <mxPoint x="56.5" y="100" as="sourcePoint" />
            <mxPoint x="215.5" y="100" as="targetPoint" />
            <mxPoint as="offset" />
          </mxGeometry>
        </mxCell>
        <mxCell id="rocJCxlV0Q5dgGiiJqB6-7" value="&lt;font style=&quot;font-size: 10px;&quot;&gt;4.a. Возврат &lt;br&gt;положительного ответа&lt;/font&gt;" style="html=1;verticalAlign=bottom;endArrow=open;dashed=1;endSize=8;edgeStyle=elbowEdgeStyle;elbow=vertical;curved=0;rounded=1;fillColor=#ffcd28;gradientColor=#ffa500;strokeColor=#BD7000;exitX=-0.399;exitY=0.266;exitDx=0;exitDy=0;exitPerimeter=0;" parent="rocJCxlV0Q5dgGiiJqB6-4" edge="1">
          <mxGeometry x="0.0057" relative="1" as="geometry">
            <mxPoint x="216.20999999999992" y="159.80000000000018" as="sourcePoint" />
            <mxPoint x="55.49797979797978" y="159.82828282828268" as="targetPoint" />
            <mxPoint as="offset" />
          </mxGeometry>
        </mxCell>
        <mxCell id="rocJCxlV0Q5dgGiiJqB6-8" value="&lt;font style=&quot;font-size: 10px&quot;&gt;5.а. Сохранение &lt;br&gt;данных авторизации&lt;br&gt;&lt;/font&gt;" style="html=1;align=left;spacingLeft=2;endArrow=block;rounded=1;edgeStyle=orthogonalEdgeStyle;curved=0;rounded=0;exitX=1.002;exitY=0.431;exitDx=0;exitDy=0;exitPerimeter=0;" parent="rocJCxlV0Q5dgGiiJqB6-4" edge="1">
          <mxGeometry relative="1" as="geometry">
            <mxPoint x="55.5" y="180" as="sourcePoint" />
            <Array as="points">
              <mxPoint x="95.5" y="180" />
              <mxPoint x="95.5" y="229" />
            </Array>
            <mxPoint x="56.5" y="229" as="targetPoint" />
            <mxPoint as="offset" />
          </mxGeometry>
        </mxCell>
        <mxCell id="rocJCxlV0Q5dgGiiJqB6-9" value="&lt;font style=&quot;font-size: 10px;&quot;&gt;4.б. Возврат ошибки&lt;/font&gt;" style="html=1;verticalAlign=bottom;endArrow=open;dashed=1;endSize=8;edgeStyle=elbowEdgeStyle;elbow=vertical;curved=0;rounded=1;fillColor=#ffcd28;gradientColor=#ffa500;strokeColor=#BD7000;exitX=-0.399;exitY=0.266;exitDx=0;exitDy=0;exitPerimeter=0;" parent="rocJCxlV0Q5dgGiiJqB6-4" edge="1">
          <mxGeometry x="-0.0046" relative="1" as="geometry">
            <mxPoint x="216.2099999999999" y="310.00000000000017" as="sourcePoint" />
            <mxPoint x="55.497979797979795" y="310.02828282828267" as="targetPoint" />
            <mxPoint as="offset" />
          </mxGeometry>
        </mxCell>
        <mxCell id="rocJCxlV0Q5dgGiiJqB6-10" value="api-proxy" style="shape=umlLifeline;perimeter=lifelinePerimeter;container=1;collapsible=0;recursiveResize=0;rounded=1;shadow=0;strokeWidth=1;size=40;" parent="1" vertex="1">
          <mxGeometry x="559" y="2360" width="101" height="400" as="geometry" />
        </mxCell>
        <mxCell id="rocJCxlV0Q5dgGiiJqB6-11" value="" style="points=[];perimeter=orthogonalPerimeter;rounded=1;shadow=0;strokeWidth=1;" parent="rocJCxlV0Q5dgGiiJqB6-10" vertex="1">
          <mxGeometry x="45.5" y="80" width="10" height="300" as="geometry" />
        </mxCell>
        <mxCell id="rocJCxlV0Q5dgGiiJqB6-12" value="&lt;font style=&quot;font-size: 10px&quot;&gt;3. Проверка&lt;br style=&quot;border-color: var(--border-color);&quot;&gt;&lt;span style=&quot;border-color: var(--border-color);&quot;&gt;данных&lt;/span&gt;&lt;br&gt;&lt;/font&gt;" style="html=1;align=left;spacingLeft=2;endArrow=block;rounded=1;edgeStyle=orthogonalEdgeStyle;curved=0;rounded=0;exitX=1.002;exitY=0.431;exitDx=0;exitDy=0;exitPerimeter=0;" parent="rocJCxlV0Q5dgGiiJqB6-10" edge="1">
          <mxGeometry relative="1" as="geometry">
            <mxPoint x="55.5" y="100" as="sourcePoint" />
            <Array as="points">
              <mxPoint x="95.5" y="100" />
              <mxPoint x="95.5" y="149" />
            </Array>
            <mxPoint x="56.5" y="149" as="targetPoint" />
          </mxGeometry>
        </mxCell>
        <mxCell id="rocJCxlV0Q5dgGiiJqB6-13" value="&lt;font style=&quot;font-size: 10px&quot;&gt;1. Запрос на добавление &lt;br&gt;данных для авториазции&lt;/font&gt;" style="html=1;verticalAlign=bottom;endArrow=block;fontSize=12;gradientColor=#7ea6e0;fillColor=#dae8fc;strokeColor=#6c8ebf;exitX=1.031;exitY=0.001;exitDx=0;exitDy=0;exitPerimeter=0;" parent="1" source="rocJCxlV0Q5dgGiiJqB6-2" edge="1">
          <mxGeometry x="0.0017" width="80" relative="1" as="geometry">
            <mxPoint x="258" y="2438.9500000000007" as="sourcePoint" />
            <mxPoint x="440" y="2440" as="targetPoint" />
            <mxPoint as="offset" />
          </mxGeometry>
        </mxCell>
        <mxCell id="rocJCxlV0Q5dgGiiJqB6-14" value="&lt;span style=&quot;font-size: 10px&quot;&gt;6.а. Возврат в ответе результата &lt;br&gt;добавления (успешно)&lt;/span&gt;" style="html=1;verticalAlign=bottom;endArrow=open;dashed=1;endSize=8;fontSize=12;gradientColor=#7ea6e0;fillColor=#dae8fc;strokeColor=#6c8ebf;" parent="1" edge="1">
          <mxGeometry relative="1" as="geometry">
            <mxPoint x="430" y="2610" as="sourcePoint" />
            <mxPoint x="260" y="2610" as="targetPoint" />
            <mxPoint as="offset" />
          </mxGeometry>
        </mxCell>
        <mxCell id="rocJCxlV0Q5dgGiiJqB6-15" value="&lt;font style=&quot;font-size: 10px;&quot;&gt;alt. Наличие ошибок&lt;/font&gt;" style="shape=umlFrame;whiteSpace=wrap;html=1;pointerEvents=0;width=90;height=30;rounded=1;" parent="1" vertex="1">
          <mxGeometry x="190" y="2640" width="470" height="90" as="geometry" />
        </mxCell>
        <mxCell id="rocJCxlV0Q5dgGiiJqB6-16" value="amqp-rpc" style="verticalAlign=bottom;endArrow=block;shadow=0;strokeWidth=1;fontSize=8;entryX=-0.033;entryY=0.001;entryDx=0;entryDy=0;entryPerimeter=0;fillColor=#f0a30a;strokeColor=#BD7000;" parent="1" edge="1">
          <mxGeometry relative="1" as="geometry">
            <mxPoint x="43.000000000000114" y="2400" as="sourcePoint" />
            <mxPoint x="143.37" y="2400" as="targetPoint" />
          </mxGeometry>
        </mxCell>
        <mxCell id="rocJCxlV0Q5dgGiiJqB6-17" value="http" style="verticalAlign=bottom;endArrow=block;shadow=0;strokeWidth=1;fontSize=8;entryX=-0.033;entryY=0.001;entryDx=0;entryDy=0;entryPerimeter=0;gradientColor=#7ea6e0;fillColor=#dae8fc;strokeColor=#6c8ebf;" parent="1" edge="1">
          <mxGeometry relative="1" as="geometry">
            <mxPoint x="43.000000000000114" y="2430" as="sourcePoint" />
            <mxPoint x="143.37" y="2430" as="targetPoint" />
          </mxGeometry>
        </mxCell>
        <mxCell id="rocJCxlV0Q5dgGiiJqB6-18" value="Прочее (зависит от типа &#xa;коннектора или шлюза&#xa; либо внутренний процесс) " style="verticalAlign=bottom;endArrow=block;shadow=0;strokeWidth=1;fontSize=8;entryX=-0.033;entryY=0.001;entryDx=0;entryDy=0;entryPerimeter=0;" parent="1" edge="1">
          <mxGeometry x="-0.1148" relative="1" as="geometry">
            <mxPoint x="43.000000000000114" y="2480" as="sourcePoint" />
            <mxPoint x="143.37" y="2480" as="targetPoint" />
            <mxPoint as="offset" />
          </mxGeometry>
        </mxCell>
        <mxCell id="rocJCxlV0Q5dgGiiJqB6-19" value="Легенда" style="text;html=1;strokeColor=none;fillColor=none;align=center;verticalAlign=middle;whiteSpace=wrap;rounded=0;fontSize=13;" parent="1" vertex="1">
          <mxGeometry x="59" y="2360" width="40" height="20" as="geometry" />
        </mxCell>
      </root>
    </mxGraphModel>
  </diagram>
</mxfile>
